<?xml version="1.0" encoding="UTF-8" standalone="no"?>
<!-- Created with Inkscape (http://www.inkscape.org/) -->

<svg
   xmlns:dc="http://purl.org/dc/elements/1.1/"
   xmlns:cc="http://creativecommons.org/ns#"
   xmlns:rdf="http://www.w3.org/1999/02/22-rdf-syntax-ns#"
   xmlns:svg="http://www.w3.org/2000/svg"
   xmlns="http://www.w3.org/2000/svg"
   xmlns:sodipodi="http://sodipodi.sourceforge.net/DTD/sodipodi-0.dtd"
   xmlns:inkscape="http://www.inkscape.org/namespaces/inkscape"
   width="50"
   height="50"
   id="svg2985"
   version="1.1"
   inkscape:version="0.48.2 r9819"
   inkscape:export-filename="/Users/lk/www/lk/home.png"
   inkscape:export-xdpi="70.309998"
   inkscape:export-ydpi="70.309998"
   sodipodi:docname="home.svg">
  <defs
     id="defs2987">
    <inkscape:perspective
       sodipodi:type="inkscape:persp3d"
       inkscape:vp_x="0 : 32 : 1"
       inkscape:vp_y="0 : 1000 : 0"
       inkscape:vp_z="64 : 32 : 1"
       inkscape:persp3d-origin="32 : 21.333333 : 1"
       id="perspective3087" />
    <inkscape:path-effect
       effect="skeletal"
       id="path-effect3017"
       is_visible="true"
       pattern="M 0,0 0,10 10,5 z"
       copytype="single_stretched"
       prop_scale="1"
       scale_y_rel="false"
       spacing="0"
       normal_offset="0"
       tang_offset="0"
       prop_units="false"
       vertical_pattern="false"
       fuse_tolerance="0" />
    <mask
       maskUnits="userSpaceOnUse"
       id="mask5590">
      <rect
         y="34"
         x="39"
         height="7.264679"
         width="6.0000014"
         id="rect5592"
         style="fill:#333333;fill-opacity:1;stroke:none" />
    </mask>
    <mask
       maskUnits="userSpaceOnUse"
       id="mask5594">
      <rect
         y="27.464655"
         x="17.893623"
         height="6.1272845"
         width="2.8730087"
         id="rect5596"
         style="fill:#333333;fill-opacity:1;stroke:none" />
    </mask>
    <mask
       maskUnits="userSpaceOnUse"
       id="mask5598">
      <rect
         y="45.523392"
         x="57.744247"
         height="8.0722771"
         width="6.9611268"
         id="rect5600"
         style="fill:#333333;fill-opacity:1;stroke:none" />
    </mask>
    <mask
       maskUnits="userSpaceOnUse"
       id="mask5602">
      <rect
         y="34"
         x="28.953362"
         height="14.999999"
         width="8.0466375"
         id="rect5604"
         style="fill:#333333;fill-opacity:1;stroke:none"
         mask="url(#mask5590)"
         transform="matrix(0.47883469,0,0,0.84343501,-0.78093006,-1.2121353)" />
    </mask>
    <mask
       maskUnits="userSpaceOnUse"
       id="mask5606">
      <rect
         y="34"
         x="28.953362"
         height="14.999999"
         width="8.0466375"
         id="rect5608"
         style="fill:#333333;fill-opacity:1;stroke:none"
         mask="url(#mask5590)" />
    </mask>
    <mask
       maskUnits="userSpaceOnUse"
       id="mask5610">
      <rect
         y="34"
         x="28.953362"
         height="14.999999"
         width="8.0466375"
         id="rect5612"
         style="fill:#333333;fill-opacity:1;stroke:none"
         mask="url(#mask5590)"
         transform="matrix(1.1601876,0,0,1.1111678,12.496934,7.7436872)" />
    </mask>
    <mask
       maskUnits="userSpaceOnUse"
       id="mask5614">
      <rect
         y="28.375366"
         x="19"
         height="20.624632"
         width="27.999998"
         id="rect5616"
         style="fill:#ffffff;fill-opacity:1;stroke:none"
         mask="url(#mask5606)"
         transform="matrix(1.1601876,0,0,1.1111678,12.496934,7.7436872)" />
    </mask>
  </defs>
  <sodipodi:namedview
     id="base"
     pagecolor="#ffffff"
     bordercolor="#666666"
     borderopacity="1.0"
     inkscape:pageopacity="0.0"
     inkscape:pageshadow="2"
     inkscape:zoom="7.9999996"
     inkscape:cx="46.42905"
     inkscape:cy="32.402287"
     inkscape:current-layer="layer1"
     showgrid="true"
     inkscape:document-units="px"
     inkscape:grid-bbox="true"
     showguides="false"
     inkscape:window-width="1280"
     inkscape:window-height="752"
     inkscape:window-x="0"
     inkscape:window-y="0"
     inkscape:window-maximized="1">
    <inkscape:grid
       type="xygrid"
       id="grid3011"
       empspacing="5"
       visible="true"
       enabled="true"
       snapvisiblegridlinesonly="true" />
  </sodipodi:namedview>
  <metadata
     id="metadata2990">
    <rdf:RDF>
      <cc:Work
         rdf:about="">
        <dc:format>image/svg+xml</dc:format>
        <dc:type
           rdf:resource="http://purl.org/dc/dcmitype/StillImage" />
        <dc:title />
      </cc:Work>
    </rdf:RDF>
  </metadata>
  <g
     id="layer1"
     inkscape:label="Layer 1"
     inkscape:groupmode="layer"
     transform="translate(0,-14)">
    <path
       style="fill:#333333;fill-opacity:1;stroke:none"
       d="M 25,24 C 16.714352,24 10,30.715728 10,38.999999 10,47.284272 16.714352,54 25,54 33.285648,54 40,47.284272 40,38.999999 40,30.715728 33.285648,24 25,24 z m -0.01748,4.335937 5.052447,4.771206 5.052449,4.771205 -2.255246,0 0,0.05023 0,2.142857 -4e-6,8.035712 -5.594405,0 0,-8.035715 -4.493007,0 0,8.035715 -5.576922,0 0,-8.035715 0,-2.142857 0,-0.05023 -2.307693,0 5.052448,-4.771206 5.069931,-4.771205 z m 3.374126,11.735492 0,3.883928 3.356644,0 0,-3.883928 -3.356644,0 z"
       id="path3007"
       inkscape:connector-curvature="0" />
    <path
       style="fill:#0e0000;fill-opacity:0;stroke:#7f67c2;stroke-width:0.03414746;stroke-linecap:butt;stroke-miterlimit:4;stroke-opacity:0;stroke-dasharray:none"
       d="m 17.21126,42.868365 0,-5.100699 -1.098112,-0.01838 -1.098115,-0.01836 4.95885,-4.653105 c 2.727367,-2.559207 4.988049,-4.643821 5.023739,-4.632474 0.03569,0.01134 2.286996,2.105244 5.002902,4.653105 l 4.938009,4.632474 -1.066434,0.01836 -1.066432,0.01838 0,5.100699 0,5.100699 -2.762239,0 -2.762238,0 0,-4.001877 0,-4.001878 -2.272727,0 -2.272726,0 0,4.001878 0,4.001877 -2.762238,0 -2.762239,0 0,-5.100699 0,0 z m 14.545454,-0.935465 0,-1.967591 -1.713286,0 -1.713286,0 0,1.967591 0,1.967589 1.713286,0 1.713286,0 0,-1.967589 z"
       id="path5496"
       inkscape:connector-curvature="0" />
  </g>
  <g
     inkscape:groupmode="layer"
     inkscape:label="Layer 1 copy"
     id="g5536"
     transform="translate(0,-14)">
    <path
       inkscape:connector-curvature="0"
       id="path5550"
       d="m 17.21126,42.868365 0,-5.100699 -1.098112,-0.01838 -1.098115,-0.01836 4.95885,-4.653105 c 2.727367,-2.559207 4.988049,-4.643821 5.023739,-4.632474 0.03569,0.01134 2.286996,2.105244 5.002902,4.653105 l 4.938009,4.632474 -1.066434,0.01836 -1.066432,0.01838 0,5.100699 0,5.100699 -2.762239,0 -2.762238,0 0,-4.001877 0,-4.001878 -2.272727,0 -2.272726,0 0,4.001878 0,4.001877 -2.762238,0 -2.762239,0 0,-5.100699 0,0 z m 14.545454,-0.935465 0,-1.967591 -1.713286,0 -1.713286,0 0,1.967591 0,1.967589 1.713286,0 1.713286,0 0,-1.967589 z"
       style="fill:#0e0000;fill-opacity:0;stroke:#7f67c2;stroke-width:0.03414746;stroke-linecap:butt;stroke-miterlimit:4;stroke-opacity:0;stroke-dasharray:none" />
  </g>
  <g
     id="g3911"
     inkscape:label="Layer 1 copy copy"
     inkscape:groupmode="layer"
     transform="translate(0,-14)">
    <path
       style="fill:#0e0000;fill-opacity:0;stroke:#7f67c2;stroke-width:0.03414746;stroke-linecap:butt;stroke-miterlimit:4;stroke-opacity:0;stroke-dasharray:none"
       d="m 17.21126,42.868365 0,-5.100699 -1.098112,-0.01838 -1.098115,-0.01836 4.95885,-4.653105 c 2.727367,-2.559207 4.988049,-4.643821 5.023739,-4.632474 0.03569,0.01134 2.286996,2.105244 5.002902,4.653105 l 4.938009,4.632474 -1.066434,0.01836 -1.066432,0.01838 0,5.100699 0,5.100699 -2.762239,0 -2.762238,0 0,-4.001877 0,-4.001878 -2.272727,0 -2.272726,0 0,4.001878 0,4.001877 -2.762238,0 -2.762239,0 0,-5.100699 0,0 z m 14.545454,-0.935465 0,-1.967591 -1.713286,0 -1.713286,0 0,1.967591 0,1.967589 1.713286,0 1.713286,0 0,-1.967589 z"
       id="path3917"
       inkscape:connector-curvature="0" />
  </g>
  <g
     inkscape:groupmode="layer"
     id="layer2"
     inkscape:label="Layer"
     transform="translate(0,-14)" />
</svg>
